<?xml version="1.0" encoding="utf-8"?>
<!-- Generator: Adobe Illustrator 19.1.0, SVG Export Plug-In . SVG Version: 6.00 Build 0)  -->
<svg version="1.1" id="Layer_1" xmlns:ev="http://www.w3.org/2001/xml-events"
	 xmlns="http://www.w3.org/2000/svg" xmlns:xlink="http://www.w3.org/1999/xlink" x="0px" y="0px" viewBox="-356 294 450 320"
	 enable-background="new -356 294 450 320" xml:space="preserve">
<path fill="#EAEFF5" d="M-183.301,380.529c-64.354,3.271-136.804,37.865-131.71,97.528c2.575,30.164,37.845,39.07,53.173,58.395
	c26.772,33.754,32.601,67.113,103.901,56.561c47.738-7.065,80.853-54.098,132.015-80.408C21.357,488.292,48.481,505.09,55.671,475
	C68.054,423.179-49.679,373.735-183.301,380.529z"/>
<path fill="#D9E4EC" d="M-288.425,482.032c-0.382,1.972-2.673,4.129-5.163,5.25c0.256,2.08,0.35,3.802,0.274,4.839
	c-0.632,8.577-21.418,15.13-27.198,10.395c-2.759-2.26-12.98-18.388-11.307-25.07c2.588-10.333,22.946-16.159,30.254-11.312
	c0.555,0.368,1.083,0.875,1.586,1.486c1.83-1.725,4.225-2.474,7.582-1.18C-285.174,469.222-287.755,478.579-288.425,482.032z
	 M-294.536,471.026c-0.891-0.165-1.71,0.812-2.454,2.108c1.042,2.675,1.873,5.732,2.481,8.642c0.445-0.341,0.856-0.757,1.195-1.273
	C-291.008,476.988-292.345,471.431-294.536,471.026z"/>
<path fill="#CAD6E4" d="M-317.761,469.497c-5.654,1.764-11.145,6.964-8.557,9.172c2.588,2.208,12.745-0.685,17.724-3.058
	C-303.615,473.238-299.447,463.783-317.761,469.497z"/>
<path fill="#EAEFF5" d="M-324.484,485.089c-0.437,2.408,5.956,1.233,9.779,0c4.758-1.534,8.677-3.162,7.639-4.586
	c-1.037-1.423-5.253,1.079-8.556,1.835C-320.697,483.499-324.047,482.682-324.484,485.089z"/>
<path fill="#FFFFFF" d="M-64.594,421.112l20.326-14.456c0,0,5.55,6.982,12.499,12.149c7.134,5.305,15.671,8.798,15.671,8.798
	l-23.138,18.607c0,0-7.902-4.643-14.365-11.04C-59.812,429.023-64.594,421.112-64.594,421.112z"/>
<path fill="#FFFFFF" d="M19.262,446.845l-0.933,1.694l0.735,1.068l-0.308,3.363c0,0-30.007-5.572-31.556-5.819
	c-2.619-0.416-2.553-6.699,0.261-6.48C-9.724,440.89,19.262,446.845,19.262,446.845z"/>
<path fill="#CAD6E4" d="M20.23,447.912c-6.575-1.389-31.729-6.63-32.745-5.682c-1.201,1.12-0.942,4.128,0.126,4.376
	c0.953,0.22,26.702,5.18,32.242,6.246l-0.117,1.542c0,0-28.456-5.281-32.157-5.929c-3.7-0.649-3.297-4.028-3.297-4.028l4.946-33.596
	l33.358,6.151L20.23,447.912z"/>
<path fill="#FFFFFF" d="M11.251,436.353l-0.102-2.817l1.669-0.625l-0.981-1.424l2.025-0.87l-0.925-1.726l0.878-1.392l-1.827-1.891
	c0,0-28.031-2.324-32.165-2.511c-4.134-0.187-9.678,7.367,0.086,9.653C-10.326,435.036,11.251,436.353,11.251,436.353z"/>
<path fill="#D9E4EC" d="M-23.808,432.686c-4.479-1.237-11.607-38.202-11.607-38.202s-0.345-4.236,4.113-5.459
	s37.219,3.753,37.219,3.753l9.645,35.354c0.011-0.013-24.111-2.414-35.34-2.728c-4.043-0.113-5.244,5.379,0.209,6.199
	c11.049,1.66,33.446,3.99,33.446,3.99l-0.933,1.694C12.97,437.292-17.036,434.557-23.808,432.686z"/>
<path fill="#EAEFF5" d="M-140,308c-23.132,2.547-23,28-23,28s5.733-5.427,9-6c8.989-1.577,18,4,18,4s4.386-8.148,16-9
	c8.284-0.607,12,5,12,5S-112.847,305.011-140,308z"/>
<path fill="#D9E4EC" d="M-110,333c-0.151,0-0.296-0.02-0.438-0.051l-22.827,24.729L-134,357l0,0l-0.614,0.789l-25.635-19.938
	c-0.232,0.095-0.485,0.149-0.751,0.149c-1.105,0-2-0.895-2-2s0.895-2,2-2s2,0.895,2,2c0,0.092-0.015,0.179-0.027,0.268
	l23.832,18.536l-1.652-18.998c-0.679-0.32-1.153-1.005-1.153-1.806c0-1.105,0.895-2,2-2s2,0.895,2,2
	c0,0.677-0.339,1.274-0.854,1.636l1.654,19.023l21.298-23.072C-111.96,331.4-112,331.206-112,331c0-1.105,0.895-2,2-2s2,0.895,2,2
	S-108.895,333-110,333z"/>
<path fill="#20C05C" d="M-60.263,388.457v4.01c0,0.844,0.692,1.529,1.546,1.529h4.214c0.889,0,1.595-0.741,1.542-1.619l-0.249-4.194
	c-0.05-0.836-0.77-1.478-1.615-1.438l-3.965,0.184C-59.614,386.967-60.263,387.64-60.263,388.457z M-74.131,342l-9.464,0.413
	c-1.435,0.063-2.579,1.208-2.626,2.629l-0.267,8.033c-0.048,1.449,1.06,2.681,2.52,2.801l9.998,0.825
	c1.634,0.135,3.023-1.167,2.976-2.789l-0.267-9.272C-71.305,343.122-72.597,341.933-74.131,342z M-204.009,332.515l0.116,6.405
	c0.029,1.616,1.375,2.903,3.008,2.876l6.826-0.115c1.672-0.028,2.988-1.421,2.904-3.074l-0.346-6.863
	c-0.084-1.658-1.543-2.916-3.214-2.77l-6.594,0.572C-202.857,329.68-204.036,330.978-204.009,332.515z"/>
<path fill="#20C05C" d="M-122.087,350.421l-22.859,3.292c-4.511,0.65-7.806,4.601-7.637,9.159l0.892,24.113
	c0.186,5.024,4.483,8.902,9.496,8.57l23.57-1.561c4.897-0.325,8.611-4.55,8.307-9.452l-1.603-25.846
	C-112.243,353.496-116.933,349.678-122.087,350.421z"/>
<path fill="#4F7B8A" d="M-122.245,384.385c-1.105,1.82-9.859,1.039-11.142,0.129c-1.282-0.91-1.344-3.783-0.821-5.551
	c0.523-1.769,4.012-0.739,4.012-0.739l-0.138,2.044c0,0-1.851-0.281-1.977,0.876c-0.196,1.804,2.698,0.991,4.07,0.276
	c1.148-0.598,0.801-1.46,0.585-3.087c-0.216-1.627-2.887-1.166-4.885-1.247c-1.998-0.082-1.878-0.706-2.165-2.421
	c-0.286-1.715-0.906-1.112-0.786-0.464c0.12,0.648,0.223,5.918-1.199,5.667c-2-0.353-5.012-1.588-6.025-3.472
	c-0.753-1.402-1.933-6.232-2.351-8.494c1.302-0.057,2.665-0.123,3.63-0.231c1.575-0.178,2.177-0.767,1.877-2.653
	c-0.184-1.151-0.42-2.456-0.599-3.695c1.049-0.163,2.479-0.377,3.904-0.565c2.748-0.363,2.922,2.377,2.922,2.377
	s1.414-0.046,6.047-0.6c3.015-0.361,4.082,0.513,4.958,2.515C-120.314,369.654-121.14,382.565-122.245,384.385z M-126.601,370.129
	c-1.229,0.171-1.343,3.131-1.343,3.131s0.928-0.441,1.739-0.608c0.811-0.168,1.797,0.406,1.797,0.406
	S-124.477,369.836-126.601,370.129z M-141.335,361.631l0.836,4.714l-4.741,0.47L-141.335,361.631z"/>
<path fill="#FAD347" d="M-202.699,433.059c5.753-0.831,11.877,3.929,17.971,10.317c6.095,6.388,8.509,10.011,16.505,11.052
	c7.996,1.041,8.385-4.739,14.963-1.606c6.578,3.132,15.266,19.915,6.862,33.45c-8.405,13.535-24.55,13.254-33.374,4.755
	C-188.596,482.529-208.453,433.89-202.699,433.059z"/>
<path fill="#0194B8" d="M-75.4,445.933c6.366,6.869,11.426,41.145,8.734,59.465c-0.647,4.405-1.459,8.594-2.704,12.438
	c-18.633,18.005-39.911-0.847-39.911-0.847s-2.624-2.324-16.539,7.087c-13.916,9.411-30.634,31.189-49.215,31.453
	c-18.581,0.265-40.859-36.754-40.859-36.754l46.061-29.69l10.416,10.606c0,0,13.378-26.77,35.534-42.908
	C-101.726,440.645-81.765,439.065-75.4,445.933z"/>
<path fill="#00A6CE" d="M37.558,488.806c-5.121,9.447-7.849,10.746-7.849,10.746s-4.585-3.255-9.071-3.959
	c-1.599-0.251-3.476-0.565-5.232-0.866c-1.011,4.45-3.268,8.896-6.961,12.059c-8.945,7.662-19.035,0.61-19.035,0.61
	s-0.575,2.761-12.359,5.177c-11.783,2.416-20.715-4.147-28.643-8.008c-7.928-3.861-23.563-7.747-31.945-9.115
	c-8.382-1.368-25.138,7.589-41.661,20.127c-15.301,11.612-40.297,41.059-51.597,44.145c-6.694,1.828-19.321-0.117-29.708-9.959
	c-10.337-9.796-17.203-26.984-17.203-26.984l14.816-8.155c0,0,1.261,14.484,3.449,16.854c2.189,2.369,6.227-9.121,19.656-21.986
	c14.026-13.437,61.95-43.573,86.621-48.346c19.264-3.728,28.949,5.679,56.591,11.122c30.565,6.019,45.945-0.934,55.233,7.111
	c2.209,1.914,3.392,5.692,3.369,9.998c4.066,0.375,9.29,0.785,10.564,0.554c2.155-0.391,6.479-7.696,6.321-16.873
	c-0.121-7.065,4.883-13.971,7.788-12.705C43.607,461.618,42.678,479.36,37.558,488.806z M-109.281,516.989
	c0,0-4.531-4.074,6.711-11.731c11.241-7.658,27.675-3.157,31.504,2.344c2.418,3.475,2.191,7.637,1.696,10.234
	c-3.314,10.235-9.734,17.992-24.282,20.802l-2.46,6.703c0,0,4.303,3.618,14.384-1.302c4.931-2.407,22.745-5.872,14.559,1.658
	c-2.879,2.648-9.039,6.369-22.056,8.119c-13.016,1.749-19.539-1.944-19.539-1.944s4.903-5.537,7.705-10.056
	c0.483-0.779,0.906-1.562,1.286-2.333c-0.937,0.082-1.875,0.164-2.867,0.213c-27.754,1.359-19.344-14.034-15.149-18.078
	C-113.594,517.574-109.281,516.989-109.281,516.989z"/>
<path fill="#FAC147" d="M-263.138,444.561c3.561-8.208,7.811-9.523,7.811-9.523s-9.329-5.105-3.376-14.499
	c5.953-9.395,22.317-10.685,31.063-8.105c15.421,4.548,19.953,18.707,19.953,18.707s6.732-0.549,10.012,2.253
	c3.281,2.803,5.134,9.788,8.29,14.062c3.156,4.274,8.502,20.769,21.568,31.881c3.841,3.266,4.7,10.418,0.881,11.701
	c-2.687,0.903-16.959,7.42-29.485,19.181s-16.761,27.226-22.369,28.68c-5.607,1.453-13.055-0.741-15.881-12.192
	c-2.826-11.452-13.009-23.618-21.055-37.473C-263.771,475.378-266.7,452.769-263.138,444.561z"/>
<path fill="#FAD347" d="M-252.87,439.418c-10.35-0.803-14.12,10.675-15.585,22.983c-1.267,10.652-2.979,23.837-6.928,34.101
	c-3.949,10.264-10.456,17.962-5.791,34.728c6.264,22.514,27.324,11.613,27.324,11.613s7.181,5.21,16.54,0.271
	c12.832-6.772,18.468-30.976,10.925-42.818c-8.835-13.87-21.491-0.091-21.491-0.091s4.65-25.364,4.47-38.482
	C-243.591,448.176-246.025,439.95-252.87,439.418z"/>
<path fill="#FAAC47" d="M-220.616,518.155c-3.359,2.435-6.134,4.43-7.674,5.54c-2.942,2.12-8.31,1.258-9.132-3.429
	c-1.441-8.213,2.566-15.083,2.566-15.083s6.476-1.602,13.717-4.155C-209.874,503.057-214.995,512.211-220.616,518.155z"/>
<path fill="#FAAC47" d="M-180.542,498.495c0,0-5.244-15.813-11.078-28.119c-6.744-14.225-16.111-20.86-14.856-23.376
	c1.454-2.913,11.564,10.731,16.139,19.514c6.128,11.765,12.399,30.034,12.399,30.034L-180.542,498.495z M-240.072,417.096
	c21.268-6.248,30.405,25.891,30.405,25.891s-13.082-9.16-26.223-13.084C-249.031,425.979-247.377,419.242-240.072,417.096z"/>
<path fill="#504869" d="M-217.448,377.342c0.227,4.533-3.74,6.84-3.74,6.84l-1.986-1.773c-5.88,9.167-29.38,10.044-24.237-5.792
	c6.47-4.764,10.143-7.36,12.211-11.726c0.407-0.858,3.558,2.909,3.558,2.909s3.294-3.256,4.987-5.441
	c0.656-0.845,7.763,3.21,4.83,9.909C-220.023,372.999-217.59,374.506-217.448,377.342z M-248.838,408.884
	c0.41,0.678,0.83,1.399,1.254,2.147C-247.926,410.448-248.332,409.755-248.838,408.884z"/>
<path fill="#283247" d="M-222.813,374.06c15.551,27.477-13.019,51.269-22.467,41.208c-1.098-2.317-3.573-6.409-3.558-6.384
	c-4.673-8.037-9.15-24.478,1.427-32.267C-239.217,370.765-229.775,368.448-222.813,374.06z"/>
<path fill="#ED6047" d="M-213.754,393.719c2.333,15.986-7.655,14.67-8.641,20.596c-1.083,6.503,0.559,15.244,2.972,19.024
	c2.413,3.78,5.722,7.069,5.722,7.069s-10.33-6.113-26.884-12.201c-0.485-3.789-0.875-5.658-4.695-12.939
	c0.758-0.637,1.725-1.584,2.457-2.774c1.249-2.03,1.649-4.965,1.649-4.965s-3.489,0.986-5.061-0.593s-3.142-6.028-1.358-9.531
	c1.785-3.502,5.291-0.299,6.162,0.962s4.96-5.216,3.813-8.165c-1.146-2.948-8.257-1.91-8.179-5.93
	c0.079-4.02,3.384-6.297,8.325-7.757c4.94-1.459,11.212,2.325,14.376-2.048c0.098-0.135,0.191-0.269,0.281-0.403
	c3.049,2.459,5.624,6.436,7.409,12.308c2.347,0.393,5.189,1.008,5.514,1.72C-209.522,388.901-212.003,391.812-213.754,393.719z"/>
<path fill="#ED6047" d="M-138.569,426.237c1.676-3.208-2.181-5.864-1.487-9.542c0.694-3.677-1.004-9.728-2.516-11.683
	c-1.512-1.954-2.099-4.048,0.577-2.977c2.676,1.07,5.086,5.398,5.806,6.977c0.719,1.58,3.932,1.857,6.237,0.69
	c2.306-1.168,6.578-5.021,9.108-6.965c2.53-1.945,6.262-2.02,6.381-1.172s-3.882,2.939-5.49,4.426
	c-1.607,1.487-2.028,2.594-1.257,3.368c0.771,0.775,5.279-1.023,8.162-1.845c2.882-0.822,6.786-0.077,6.405,1.468
	c-0.381,1.545-4.023,0.982-6.427,1.825c-2.39,0.837-3.535,1.583-3.519,1.573c0.123-0.075,6.162-1.204,5.736,0.428
	c-0.317,1.214-7.583,2.343-10.599,6.957c-1.817,2.779-10.147,13.332-17.358,31.524c-5.79,14.605-6.191,23.434-14.163,26.073
	c-7.015,2.323-10.386-1.41-8.722-10.342C-159.271,454.01-148.193,444.657-138.569,426.237z"/>
<path fill="#C94E37" d="M-126.454,412.997c-0.266-0.569-6.039,1.587-7.335,3.674s1.446,7.013,2.275,6.771
	c0.828-0.241-1.224-1.622,0.036-5.261C-130.106,414.219-126.188,413.567-126.454,412.997z"/>
<path fill="#C94E37" d="M-192.535,495.211c4.181-3.088,4.948-6.189,6.601-8.825c1.653-2.636,3.519-3.972,5.354-4.705
	c1.835-0.733,6.266-1.684,4.804-3.05c-1.461-1.366-3.87-1.593-5.611-0.777c-1.741,0.816-4.037,1.279-5.318-0.557
	c-1.281-1.835-5.418-3.88-7.445-0.778C-196.177,479.62-196.715,498.298-192.535,495.211z"/>
<path fill="#ED6047" d="M-174.272,474.475c-3.145-0.258-6.529-3.538-6.529-3.538l-5.171,2.314c0,0,3.761,3.22,5.759,5.487
	c1.997,2.266,2.843,5.314,4.145,7.031c1.301,1.717-0.947,3.165-3.657-0.072c-2.691-3.213-4.426-4.155-5.953-4.867
	c0,0,4.453,5.813,5.722,8.909c1.179,2.875-1.864,2.386-3.997-0.481c-2.276-3.059-4.145-3.352-4.145-3.352s-0.904,6.559-3.556,9.968
	c-2.013,2.586-18.389,14.618-28.962,22.281c-1.389-0.343-2.989-1.579-3.457-5.31c-0.628-5.008,1.387-9.334,2.934-11.817
	c1.017-0.358,2.048-0.735,3.079-1.129c8.374-3.201,14.926-7.383,14.926-7.383s5.068-19.74,7.7-21.334
	c2.632-1.593,13.437-5.249,15.476-5.358c2.039-0.109,4.303,4.806,6.309,5.671S-171.128,474.733-174.272,474.475z"/>
<path fill="#504869" d="M-195.942,516.85c-0.885-0.027-4.509-4.224-3.669-5.125c1.877-2.015,31.767-25.563,31.767-25.563
	s-0.458-37.656-0.692-41.277c-0.234-3.62-0.549-6.451,3.178-7.9c3.726-1.449,41.555-14.2,43.827-14.803
	c2.273-0.602,4.078-1.571,3.918,1.47c-0.16,3.04-2.132,44.901-2.132,44.901c0.219-0.211-14.254,5.11-36.424,19.921
	C-171.767,498.894-195.058,516.876-195.942,516.85z"/>
<path fill="#423C55" d="M-119.632,424.115c0.596,0.744-42.346,15.8-43.604,17.513c-1.453,1.978-0.011,45.92-1.243,46.432
	c-1.232,0.512-2.212-45.028-1.031-47.685C-164.253,437.547-120.228,423.371-119.632,424.115z"/>
<path fill="#2DBE60" d="M-138.894,448.295c-3.129,1.378-5.872,8.07-3.165,12.945c2.706,4.876,7.447,0.669,8.349-4.688
	C-132.807,451.196-135.231,446.682-138.894,448.295z"/>
</svg>
